<?xml version="1.0" encoding="utf-8"?>
<!DOCTYPE svg PUBLIC "-//W3C//DTD SVG 20010904//EN" "http://www.w3.org/TR/2001/REC-SVG-20010904/DTD/svg10.dtd">
<svg version="1.0" xmlns="http://www.w3.org/2000/svg" width="1253pt" height="363pt" viewBox="0 0 1253 363" style="" preserveAspectRatio="xMidYMid meet">
<g fill="#F6F5F5FE" stroke="#F6F5F5FE">
<path d="M 129.715 10.993 C 124.883 12.011 117.908 14.273 114.215 16.020 C 110.522 17.766 101.736 21.183 94.692 23.613 C 74.745 30.492 64.752 36.343 53.173 47.922 C 49.201 51.894 47.494 52.974 45.960 52.487 C 44.854 52.136 44.014 52.221 44.093 52.675 C 44.744 56.415 40.717 57.161 38.602 53.691 C 37.729 52.259 37.876 51.603 39.310 50.537 C 40.645 49.545 40.800 48.994 39.898 48.437 C 37.798 47.139 35.000 51.789 35.000 56.576 C 35.000 59.921 34.532 61.180 32.979 62.011 C 31.868 62.606 30.554 62.842 30.059 62.537 C 28.785 61.749 25.000 66.856 25.000 69.363 C 25.000 70.514 26.688 73.063 28.750 75.027 C 30.813 76.992 33.726 80.225 35.224 82.213 C 36.776 84.273 40.374 87.014 43.592 88.589 C 48.674 91.075 49.647 91.241 53.359 90.250 C 55.627 89.644 57.644 89.310 57.841 89.508 C 58.038 89.705 57.651 91.527 56.981 93.558 C 56.248 95.778 55.933 100.495 56.189 105.387 C 56.535 111.972 57.172 114.545 59.526 118.871 C 65.213 129.319 74.732 135.053 87.591 135.778 C 97.158 136.317 105.152 134.367 111.621 129.916 C 116.115 126.825 120.256 126.248 124.399 128.136 C 126.281 128.993 127.151 130.478 127.946 134.186 C 130.650 146.794 138.764 153.434 151.500 153.463 C 157.452 153.477 159.440 152.994 164.780 150.239 C 168.234 148.458 171.264 147.000 171.514 147.000 C 171.764 147.000 173.344 149.588 175.025 152.750 C 177.181 156.806 177.893 157.616 177.441 155.500 C 177.088 153.850 176.685 150.942 176.545 149.038 L 176.291 145.576 162.895 140.778 C 130.549 129.191 109.000 120.538 109.000 119.136 C 109.000 118.622 110.664 113.993 112.698 108.850 C 115.984 100.540 116.397 98.499 116.415 90.500 C 116.438 80.270 114.612 75.444 108.185 68.744 C 100.716 60.957 85.713 58.593 75.105 63.531 C 68.876 66.431 67.151 65.899 71.500 62.421 C 75.944 58.866 82.475 56.999 90.428 57.010 C 99.318 57.022 105.801 59.847 111.708 66.281 C 116.752 71.775 118.872 76.465 119.945 84.500 C 120.563 89.124 120.775 89.640 120.873 86.750 C 120.943 84.688 121.430 83.000 121.955 83.000 C 125.173 83.000 124.182 103.199 120.523 112.182 C 120.024 113.409 120.659 114.290 122.869 115.432 C 126.844 117.488 127.291 117.413 125.955 114.917 C 125.124 113.362 125.163 111.522 126.112 107.667 C 127.691 101.247 127.401 86.649 125.573 80.576 C 120.124 62.469 103.699 52.266 84.336 54.960 C 73.849 56.418 59.558 61.360 51.157 66.432 C 43.534 71.035 41.000 71.326 41.000 67.596 C 41.000 62.574 52.600 54.913 68.707 49.298 C 75.618 46.888 77.971 46.579 89.500 46.558 L 102.500 46.535 119.400 52.317 C 128.695 55.496 138.117 58.976 140.338 60.049 C 142.559 61.122 144.775 62.000 145.263 62.000 C 147.380 62.000 194.606 80.415 195.599 81.627 C 196.203 82.365 196.933 82.733 197.222 82.445 C 197.792 81.875 206.732 85.088 217.612 89.772 C 234.173 96.904 265.945 109.592 300.750 122.974 C 305.288 124.718 309.000 126.508 309.000 126.950 C 309.000 127.393 308.298 128.337 307.441 129.049 C 306.138 130.130 303.408 129.565 290.834 125.612 C 276.636 121.148 271.902 120.271 277.142 123.076 C 279.203 124.179 279.263 124.382 277.688 124.934 C 276.478 125.359 278.764 126.616 284.931 128.919 C 289.887 130.770 293.720 132.644 293.448 133.084 C 293.176 133.524 290.826 134.161 288.227 134.498 C 276.330 136.044 263.439 140.532 254.292 146.313 C 248.663 149.870 247.637 149.975 247.563 147.000 L 247.500 144.500 246.760 147.133 C 245.769 150.663 240.664 156.000 238.280 156.000 C 236.070 156.000 180.074 133.474 178.587 131.987 C 178.044 131.444 176.936 131.000 176.123 131.000 C 175.311 131.000 165.447 127.380 154.202 122.955 C 142.957 118.530 133.585 115.082 133.375 115.292 C 133.165 115.502 143.007 119.760 155.246 124.753 C 176.503 133.425 191.155 139.430 221.000 151.698 C 235.586 157.694 238.527 159.477 235.652 160.580 C 234.388 161.065 234.226 161.567 235.023 162.528 C 237.379 165.367 233.882 164.598 221.480 159.552 C 214.341 156.647 204.113 152.588 198.750 150.532 C 193.388 148.476 189.000 146.341 189.000 145.788 C 189.000 145.217 190.188 145.035 191.750 145.365 C 195.743 146.210 194.190 145.553 163.500 133.411 C 148.650 127.536 134.475 121.728 132.000 120.505 C 129.525 119.281 126.993 118.461 126.373 118.682 C 125.752 118.904 122.854 118.177 119.932 117.066 C 115.253 115.288 112.699 115.032 114.153 116.486 C 114.420 116.754 127.566 122.155 143.365 128.489 C 173.592 140.608 180.000 143.482 180.000 144.920 C 180.000 145.404 181.575 147.375 183.500 149.300 C 186.026 151.826 187.000 153.681 187.000 155.966 C 187.000 162.156 183.197 165.054 179.684 161.541 C 178.405 160.262 177.500 161.278 172.362 169.767 C 166.590 179.304 166.500 179.569 166.500 186.977 C 166.500 191.114 166.875 196.547 167.333 199.048 L 168.166 203.596 151.333 207.291 C 128.576 212.288 120.243 213.335 109.000 212.610 C 98.400 211.927 88.599 209.763 72.969 204.657 C 58.981 200.086 49.240 198.613 37.267 199.255 C 26.033 199.858 17.043 202.691 11.275 207.446 L 7.600 210.475 18.700 210.146 C 36.624 209.615 40.269 212.148 48.339 230.739 C 50.755 236.306 53.805 242.228 55.116 243.899 C 58.934 248.764 66.224 251.811 76.898 253.003 C 85.111 253.921 86.723 254.428 89.683 257.027 C 92.897 259.848 93.524 260.000 101.975 260.000 C 114.941 260.000 124.616 256.252 146.076 242.913 C 155.380 237.131 165.429 232.000 167.452 232.000 C 169.832 232.000 170.407 236.720 168.751 242.668 C 167.466 247.287 167.449 248.042 168.644 247.583 C 169.420 247.285 173.885 248.941 178.565 251.263 C 185.434 254.669 187.020 255.871 186.788 257.492 C 186.325 260.723 183.067 260.338 174.095 255.993 L 165.691 251.922 162.891 254.604 C 158.707 258.613 157.000 263.061 157.000 269.956 C 157.000 275.478 156.593 276.709 153.033 281.951 C 150.852 285.163 147.968 290.276 146.625 293.313 C 143.869 299.545 141.678 301.319 133.921 303.601 C 129.493 304.904 127.309 306.430 122.000 311.930 C 114.101 320.113 111.544 321.839 105.880 322.812 L 101.500 323.565 101.395 331.532 C 101.255 342.219 102.350 346.274 106.269 349.579 L 109.500 352.304 110.102 344.902 C 111.177 331.676 113.139 329.454 131.981 320.114 C 152.037 310.172 169.461 297.589 176.557 287.923 L 180.238 282.908 191.369 283.513 C 197.491 283.846 203.513 284.325 204.750 284.578 C 208.424 285.329 207.309 287.000 203.135 287.000 C 196.516 287.000 192.542 291.569 188.552 303.764 C 187.330 307.500 184.951 311.076 180.355 316.083 C 176.698 320.068 174.018 323.855 174.197 324.784 C 174.745 327.632 189.753 335.315 195.737 335.811 C 198.632 336.051 201.000 335.898 201.000 335.470 C 201.000 335.042 199.262 333.204 197.138 331.386 C 192.545 327.454 190.508 323.105 191.464 319.269 C 191.864 317.663 195.820 312.931 200.886 308.000 C 212.051 297.131 220.209 285.724 219.797 281.560 C 219.430 277.860 212.846 272.547 202.211 267.371 C 192.979 262.877 192.818 263.848 205.702 246.242 C 212.686 236.698 213.262 235.295 212.802 228.937 C 212.502 224.786 211.685 222.268 209.854 219.848 C 206.487 215.396 205.444 210.284 207.788 209.721 C 209.293 209.359 209.258 209.209 207.500 208.478 C 206.400 208.020 205.146 207.163 204.713 206.573 C 203.971 205.562 204.609 211.437 205.655 215.250 C 206.613 218.742 203.004 216.943 197.031 210.951 C 191.134 205.036 190.608 204.067 191.632 201.000 C 191.932 200.100 191.863 200.000 191.459 200.750 C 189.797 203.836 187.222 201.393 183.386 193.094 C 181.355 188.700 181.082 187.201 181.928 185.094 C 182.501 183.667 183.615 178.450 184.404 173.500 C 185.194 168.550 186.326 163.233 186.920 161.685 C 187.514 160.137 188.000 157.069 188.000 154.868 C 188.000 151.178 188.176 150.920 190.250 151.561 C 191.488 151.944 194.170 153.099 196.210 154.128 C 200.763 156.425 200.677 156.426 200.579 154.093 C 200.510 152.417 202.446 152.971 216.500 158.646 C 232.278 165.017 237.692 168.001 233.464 167.999 C 232.384 167.998 225.023 165.288 217.106 161.976 C 209.189 158.665 202.545 156.122 202.341 156.326 C 202.137 156.529 208.390 159.517 216.235 162.965 C 224.081 166.412 238.203 173.201 247.618 178.050 C 265.399 187.209 274.472 190.600 278.492 189.591 C 279.787 189.266 282.183 187.875 283.817 186.500 C 285.452 185.125 286.949 184.000 287.144 184.000 C 287.340 184.000 287.500 189.737 287.500 196.750 C 287.500 209.019 287.612 209.702 290.471 214.864 C 293.963 221.169 299.540 226.030 307.077 229.336 C 314.077 232.408 318.285 233.138 328.776 233.099 C 336.062 233.072 338.137 232.663 342.688 230.361 C 345.630 228.872 350.344 225.215 353.164 222.233 C 358.812 216.261 357.961 216.310 366.450 221.468 C 372.035 224.861 378.593 225.550 385.697 223.490 C 390.363 222.136 392.658 220.650 397.410 215.903 C 400.899 212.418 404.187 210.000 405.437 210.000 C 408.614 210.000 411.778 207.355 414.139 202.727 C 415.887 199.301 416.068 198.060 415.186 195.543 C 414.600 193.869 413.810 190.768 413.431 188.651 C 412.947 185.953 412.480 185.206 411.870 186.151 C 411.145 187.275 410.848 187.264 410.091 186.088 C 409.431 185.064 408.942 185.888 408.309 189.088 C 407.752 191.905 406.906 193.500 405.968 193.500 C 405.161 193.500 404.623 192.907 404.772 192.183 C 404.922 191.459 405.237 188.084 405.472 184.683 C 405.825 179.588 405.773 179.300 405.177 183.047 C 404.779 185.548 403.564 188.957 402.477 190.623 C 399.872 194.613 392.312 201.314 391.640 200.227 C 391.350 199.758 392.215 196.337 393.562 192.626 C 397.752 181.083 400.499 161.000 397.889 161.000 C 397.160 161.000 397.004 162.206 397.434 164.500 C 397.795 166.425 397.733 168.000 397.295 168.000 C 396.858 167.999 396.566 169.792 396.647 171.983 C 396.728 174.174 396.349 177.887 395.804 180.234 C 395.259 182.580 394.683 185.175 394.524 186.000 C 394.364 186.825 393.619 187.309 392.867 187.076 C 392.115 186.843 390.256 186.713 388.736 186.787 C 386.235 186.909 386.077 186.724 387.083 184.844 C 387.958 183.209 387.860 182.431 386.621 181.193 C 384.200 178.772 383.857 180.104 384.840 188.116 C 385.338 192.177 385.551 195.838 385.314 196.250 C 385.076 196.663 383.748 197.000 382.362 197.000 C 380.014 197.000 379.898 196.776 380.671 193.750 C 382.193 187.783 381.445 178.419 379.132 174.499 C 376.618 170.239 376.578 170.000 378.373 170.000 C 379.127 170.000 380.664 172.122 381.786 174.716 L 383.828 179.432 383.571 170.544 C 383.375 163.750 383.673 161.237 384.836 159.879 C 385.672 158.902 386.839 158.391 387.428 158.743 C 388.018 159.096 387.930 158.680 387.233 157.819 C 385.833 156.089 386.562 152.982 388.357 153.032 C 388.986 153.049 390.374 153.724 391.441 154.532 C 393.509 156.096 396.018 156.493 395.973 155.250 C 395.958 154.838 394.179 153.410 392.020 152.079 C 389.861 150.747 388.338 149.262 388.636 148.780 C 388.942 148.285 389.684 148.310 390.339 148.836 C 390.978 149.349 393.006 150.091 394.847 150.485 C 397.718 151.100 398.129 151.546 397.731 153.625 C 397.477 154.957 397.665 156.293 398.150 156.593 C 398.636 156.893 398.793 157.526 398.500 158.000 C 398.207 158.474 398.425 159.144 398.984 159.490 C 399.588 159.864 400.000 158.866 400.000 157.028 C 400.000 152.126 402.561 152.085 407.343 156.909 C 411.007 160.607 411.310 161.247 409.896 162.306 C 409.013 162.967 407.985 164.473 407.610 165.652 C 406.847 168.058 409.711 182.000 410.969 182.000 C 411.414 182.000 411.823 179.413 411.878 176.250 C 411.933 173.088 412.092 168.107 412.230 165.182 C 412.480 159.907 412.436 159.821 406.757 154.363 C 403.609 151.338 400.181 146.981 399.139 144.681 C 394.738 134.961 385.733 129.667 360.500 121.963 C 334.136 113.915 336.695 115.669 334.003 103.797 C 330.787 89.611 326.307 81.191 317.058 71.947 C 291.678 46.580 223.991 16.648 178.000 10.453 C 163.032 8.437 140.652 8.687 129.715 10.993 M 173.605 15.550 C 211.678 21.159 253.376 38.354 284.037 61.087 C 288.660 64.515 295.156 68.415 298.471 69.754 C 310.662 74.676 324.305 83.029 322.728 84.606 C 322.451 84.882 316.662 82.410 309.862 79.113 C 291.082 70.004 275.582 65.442 272.396 68.087 C 271.035 69.216 271.067 69.379 272.680 69.522 C 273.681 69.610 278.225 70.931 282.777 72.457 C 294.757 76.474 294.901 77.276 285.389 87.051 C 281.134 91.423 277.088 95.000 276.398 95.000 C 275.708 95.000 274.436 94.293 273.571 93.429 C 272.143 92.000 272.000 92.050 272.000 93.980 C 272.000 96.827 276.226 98.497 288.609 100.544 C 298.253 102.138 308.827 105.233 322.000 110.318 C 331.000 113.793 357.682 125.287 362.758 127.876 C 366.004 129.532 366.812 129.673 366.364 128.505 C 366.021 127.612 366.338 127.019 367.143 127.048 C 369.776 127.140 384.363 133.517 384.762 134.749 C 385.521 137.093 381.799 137.301 377.394 135.161 C 374.056 133.539 373.000 133.354 373.000 134.392 C 373.000 135.143 374.350 136.317 376.000 137.000 C 379.239 138.342 379.961 140.694 377.431 141.665 C 376.524 142.013 368.822 138.867 359.181 134.210 C 342.798 126.296 306.082 110.585 305.449 111.217 C 305.272 111.394 313.121 115.026 322.891 119.287 C 332.661 123.548 343.063 128.264 346.007 129.767 C 351.214 132.426 353.569 135.000 350.794 135.000 C 350.039 135.000 338.916 130.935 326.078 125.966 C 313.239 120.997 302.571 117.095 302.372 117.295 C 302.172 117.495 310.782 121.401 321.504 125.976 C 332.227 130.551 341.000 134.678 341.000 135.147 C 341.000 136.498 339.388 136.174 332.808 133.500 C 326.361 130.880 324.282 130.352 327.271 132.092 C 330.495 133.969 328.021 134.919 323.795 133.428 C 320.543 132.280 319.476 132.230 318.880 133.195 C 317.473 135.471 312.719 132.901 312.282 129.629 C 311.875 126.579 311.900 126.575 318.657 128.523 C 324.290 130.146 308.450 123.733 287.198 115.786 C 273.783 110.769 262.289 106.178 261.654 105.583 C 261.019 104.987 259.682 104.361 258.682 104.191 C 257.682 104.020 250.482 101.169 242.682 97.855 C 234.882 94.540 222.425 89.370 215.000 86.364 C 207.575 83.359 200.600 80.481 199.500 79.969 C 198.400 79.457 186.949 74.958 174.053 69.972 C 161.157 64.986 149.232 60.279 147.553 59.510 C 143.243 57.539 122.357 49.511 110.500 45.268 C 101.307 41.979 99.572 41.685 89.000 41.624 C 77.876 41.560 77.206 41.682 68.500 45.342 C 55.537 50.792 54.929 50.921 58.000 47.562 C 61.000 44.282 71.436 37.273 78.905 33.523 C 81.877 32.031 90.116 28.821 97.213 26.390 C 104.310 23.959 112.824 20.603 116.132 18.933 C 127.762 13.062 148.452 11.845 173.605 15.550 M 330.071 138.383 C 340.187 140.709 346.994 143.599 352.854 148.055 C 355.798 150.294 358.445 151.889 358.735 151.598 C 360.666 149.667 368.068 160.198 367.955 164.717 C 367.916 166.316 367.737 166.285 366.230 164.418 L 364.548 162.336 362.805 164.418 C 361.071 166.489 361.035 166.471 355.945 161.000 L 350.828 155.500 353.450 160.239 C 354.892 162.846 357.254 167.346 358.699 170.239 C 360.143 173.133 362.377 177.179 363.663 179.230 C 364.948 181.282 365.975 183.982 365.944 185.230 C 365.873 188.107 362.584 196.305 361.332 196.723 C 359.322 197.393 356.752 189.299 356.007 179.951 C 354.868 165.663 349.389 156.784 338.390 151.402 C 333.558 149.039 332.107 148.797 325.230 149.211 C 311.092 150.063 297.732 159.076 287.003 175.000 C 281.463 183.223 280.510 183.929 274.907 183.968 C 269.328 184.007 262.962 181.837 248.500 174.967 C 234.384 168.262 234.194 167.991 238.798 161.134 C 245.860 150.619 265.079 140.755 285.919 136.949 C 292.883 135.678 322.487 136.639 330.071 138.383 M 65.500 216.075 C 70.450 216.600 80.483 217.970 87.797 219.120 C 98.790 220.848 104.462 221.149 120.547 220.855 C 131.824 220.649 139.874 220.879 139.700 221.401 C 139.461 222.116 124.174 229.033 115.348 232.420 C 114.161 232.875 113.978 233.378 114.727 234.127 C 115.476 234.876 119.014 234.572 126.737 233.095 C 139.517 230.649 139.325 230.665 138.420 232.130 C 136.403 235.393 111.412 244.887 98.000 247.484 C 93.875 248.283 87.899 249.479 84.719 250.141 C 76.904 251.769 66.358 250.164 60.829 246.505 C 57.453 244.271 55.943 242.001 51.391 232.313 C 48.411 225.970 45.084 219.652 44.000 218.272 C 40.347 213.629 41.410 213.520 65.500 216.075 M 303.329 81.663 C 303.694 82.027 305.439 82.484 307.208 82.678 C 308.977 82.871 313.366 84.498 316.962 86.293 C 322.774 89.193 323.800 90.163 326.201 95.028 C 329.784 102.285 330.836 108.000 328.589 108.000 C 327.093 108.000 324.197 104.078 319.797 96.092 C 318.860 94.391 317.622 93.000 317.047 93.000 C 315.452 93.000 315.799 97.588 317.500 99.000 C 319.931 101.017 319.253 102.301 316.090 101.668 C 314.057 101.261 313.013 101.525 312.622 102.543 C 311.949 104.297 307.869 104.469 306.214 102.814 C 305.299 101.899 305.403 101.213 306.669 99.814 C 308.212 98.108 308.161 98.000 305.804 98.000 C 304.426 98.000 301.907 97.515 300.206 96.922 C 297.183 95.868 297.124 95.726 297.621 90.672 C 298.435 82.377 298.895 81.000 300.852 81.000 C 301.850 81.000 302.965 81.298 303.329 81.663 M 328.354 188.452 C 330.480 190.423 331.000 191.813 331.000 195.529 C 331.000 199.351 330.471 200.683 327.952 203.202 C 325.250 205.904 324.427 206.186 320.703 205.687 C 315.169 204.945 312.000 201.369 312.000 195.867 C 312.000 187.310 322.154 182.706 328.354 188.452 M 90.739 90.529 C 95.468 93.842 95.369 102.963 90.561 106.950 C 88.208 108.902 82.843 108.783 79.676 106.708 C 74.831 103.533 75.230 94.053 80.360 90.460 C 83.069 88.563 87.978 88.596 90.739 90.529 M 295.803 88.664 C 296.208 94.207 293.763 100.000 291.019 100.000 C 288.309 100.000 282.452 97.540 281.502 96.003 C 280.533 94.435 291.708 83.799 293.890 84.212 C 294.999 84.422 295.594 85.807 295.803 88.664 M 386.790 140.925 C 388.830 141.984 392.075 144.261 394.000 145.986 L 397.500 149.121 394.500 148.489 C 387.920 147.101 386.653 147.384 384.540 150.711 C 381.953 154.785 380.482 154.822 379.098 150.851 C 377.535 146.369 377.720 144.626 380.073 141.635 C 382.546 138.490 382.173 138.529 386.790 140.925 M 379.130 157.387 C 379.952 159.189 379.883 160.474 378.850 162.637 C 376.721 167.092 373.783 166.829 370.126 161.856 C 368.407 159.519 367.000 157.278 367.000 156.876 C 367.000 155.904 369.669 155.258 374.271 155.116 C 377.336 155.022 378.247 155.447 379.130 157.387 M 166.000 206.960 C 166.000 209.036 138.869 215.203 137.178 213.512 C 136.161 212.495 137.944 211.863 148.632 209.450 C 154.609 208.100 159.950 206.807 160.500 206.577 C 162.440 205.764 166.000 206.012 166.000 206.960 M 352.711 215.657 C 351.921 217.221 351.453 218.996 351.671 219.603 C 351.890 220.209 350.252 222.347 348.031 224.353 C 343.991 228.003 342.000 228.877 342.000 227.000 C 342.000 226.450 341.663 226.053 341.250 226.118 C 338.883 226.492 339.702 225.342 346.256 219.088 C 350.240 215.286 353.646 212.320 353.824 212.495 C 354.002 212.671 353.501 214.093 352.711 215.657 M 172.288 222.231 C 172.585 226.779 173.145 231.513 173.531 232.750 C 174.762 236.694 172.298 235.202 170.609 230.980 C 168.987 226.928 168.518 219.402 169.627 215.261 C 170.720 211.183 171.740 213.854 172.288 222.231 M 376.817 190.729 C 377.226 193.608 372.363 198.763 370.755 197.155 C 369.967 196.367 370.005 194.926 370.891 191.970 C 371.897 188.613 372.511 187.932 374.309 188.188 C 375.689 188.385 376.617 189.325 376.817 190.729 M 94.416 42.864 C 94.710 43.340 91.924 44.039 88.225 44.418 C 84.526 44.797 79.475 45.366 77.000 45.683 C 71.425 46.397 72.533 44.534 78.517 43.133 C 83.686 41.923 93.730 41.754 94.416 42.864 M 193.418 257.607 C 195.619 258.452 195.393 260.719 192.979 262.011 C 190.571 263.300 189.000 262.549 189.000 260.108 C 189.000 257.198 190.355 256.431 193.418 257.607 M 412.000 202.800 C 412.000 205.104 410.104 207.000 407.800 207.000 C 405.592 207.000 405.535 206.109 407.557 203.223 C 409.431 200.547 412.000 200.302 412.000 202.800 M 173.309 277.485 C 177.272 279.140 178.970 281.000 176.519 281.000 C 174.818 281.000 167.000 277.288 167.000 276.480 C 167.000 275.565 169.773 276.007 173.309 277.485 M 391.901 139.395 C 393.138 140.711 393.747 142.038 393.255 142.343 C 392.128 143.039 386.000 139.383 386.000 138.015 C 386.000 136.132 389.635 136.982 391.901 139.395 M 390.934 188.965 C 392.188 189.636 392.589 190.701 392.252 192.465 C 391.765 195.009 389.012 196.093 388.986 193.750 C 388.979 193.063 388.701 191.488 388.370 190.250 C 387.706 187.775 388.225 187.515 390.934 188.965 "/></g>
<g fill="#F6F5F5FE" stroke="#F6F5F5FE">
<path d="M 781.000 264.000 L 781.000 341.000 807.369 341.000 C 839.050 341.000 847.875 339.829 858.196 334.254 C 869.368 328.220 879.118 316.297 882.526 304.500 C 886.781 289.770 888.110 261.064 885.544 239.304 C 883.789 224.416 882.751 220.416 878.470 212.032 C 873.376 202.056 866.246 195.263 857.000 191.578 C 845.899 187.153 844.616 187.022 812.250 187.011 L 781.000 187.000 781.000 264.000 M 835.701 210.503 C 842.497 212.264 845.327 214.158 849.723 219.885 C 855.298 227.150 857.088 236.821 857.703 263.000 C 858.147 281.926 857.856 285.343 854.724 298.000 C 851.433 311.298 842.632 317.552 825.640 318.668 C 820.485 319.007 815.083 318.987 813.634 318.623 L 811.000 317.962 811.000 264.148 C 811.000 234.550 811.300 210.033 811.667 209.667 C 812.924 208.409 829.902 209.000 835.701 210.503 "/></g>
<g fill="#F6F5F5FE" stroke="#F6F5F5FE">
<path d="M 1127.000 264.000 L 1127.000 341.000 1153.412 341.000 C 1182.515 341.000 1190.410 340.072 1200.470 335.471 C 1209.177 331.488 1224.000 316.528 1224.000 311.723 C 1224.000 310.945 1224.763 308.778 1225.696 306.908 C 1229.604 299.073 1231.336 281.087 1230.644 255.500 C 1230.011 232.079 1229.114 226.157 1224.434 214.500 C 1219.413 201.995 1207.080 191.987 1192.356 188.470 C 1188.040 187.439 1178.674 187.062 1156.750 187.036 L 1127.000 187.000 1127.000 264.000 M 1180.708 210.603 C 1196.906 215.312 1202.710 231.489 1201.662 269.000 C 1200.922 295.447 1199.028 303.500 1191.811 310.882 C 1186.099 316.725 1180.819 318.365 1167.500 318.436 L 1155.500 318.500 1155.241 263.750 L 1154.983 209.000 1165.088 209.000 C 1171.399 209.000 1177.263 209.602 1180.708 210.603 "/></g>
<g fill="#F6F5F5FE" stroke="#F6F5F5FE">
<path d="M 481.750 186.771 L 462.000 187.042 462.000 264.021 L 462.000 341.000 474.492 341.000 L 486.983 341.000 487.242 284.833 C 487.433 243.169 487.801 228.566 488.665 228.278 C 489.306 228.065 490.050 228.702 490.318 229.695 C 492.123 236.381 496.415 252.792 498.112 259.500 C 500.975 270.816 502.118 275.134 503.009 278.000 C 503.436 279.375 504.360 283.200 505.061 286.500 C 505.762 289.800 506.635 292.950 507.000 293.500 C 507.365 294.050 508.237 297.200 508.937 300.500 C 509.637 303.800 510.561 307.400 510.991 308.500 C 511.420 309.600 512.245 312.300 512.822 314.500 C 513.400 316.700 515.026 322.881 516.436 328.236 C 517.846 333.591 519.000 338.653 519.000 339.486 C 519.000 340.753 520.939 341.000 530.883 341.000 C 542.337 341.000 542.791 340.919 543.451 338.750 C 545.533 331.901 549.207 318.262 552.002 307.000 C 554.430 297.220 556.957 287.665 563.507 263.500 C 566.996 250.626 569.131 242.215 570.612 235.500 C 572.111 228.708 573.371 226.037 574.530 227.196 C 574.840 227.506 575.062 253.239 575.025 284.380 L 574.957 341.000 587.985 341.000 L 601.012 341.000 600.756 263.919 L 600.500 186.837 580.511 186.958 C 569.517 187.024 560.158 187.442 559.713 187.887 C 558.964 188.636 557.765 192.927 553.531 210.000 C 551.423 218.503 549.961 223.917 548.941 227.000 C 548.486 228.375 547.608 232.200 546.991 235.500 C 546.374 238.800 545.380 243.064 544.783 244.975 C 544.185 246.886 542.913 251.836 541.955 255.975 C 540.402 262.686 538.886 268.824 536.023 280.000 C 535.530 281.925 534.584 285.658 533.920 288.296 C 532.273 294.849 529.984 294.313 528.360 286.994 C 527.690 283.972 526.631 279.700 526.006 277.500 C 525.382 275.300 524.457 271.700 523.950 269.500 C 523.443 267.300 522.599 263.925 522.074 262.000 C 521.549 260.075 520.391 255.350 519.499 251.500 C 518.608 247.650 517.489 243.600 517.011 242.500 C 516.534 241.400 515.627 238.025 514.996 235.000 C 514.365 231.975 513.471 228.375 513.009 227.000 C 512.548 225.625 510.246 216.482 507.895 206.681 C 505.544 196.881 503.143 188.331 502.560 187.681 C 501.797 186.830 495.976 186.576 481.750 186.771 "/></g>
<g fill="#F6F5F5FE" stroke="#F6F5F5FE">
<path d="M 922.000 263.949 L 922.000 341.000 936.000 341.000 L 950.000 341.000 950.000 312.550 C 950.000 288.992 950.245 283.962 951.422 283.300 C 952.205 282.860 956.355 282.725 960.646 283.000 L 968.447 283.500 971.148 290.000 C 976.247 302.272 977.196 304.509 979.096 308.739 C 980.143 311.071 981.000 313.197 981.000 313.464 C 981.000 313.731 982.350 316.897 984.000 320.500 C 985.650 324.103 987.000 327.405 987.000 327.838 C 987.000 328.271 988.125 330.958 989.500 333.808 C 990.875 336.658 992.000 339.453 992.000 340.019 C 992.000 340.694 997.663 340.954 1008.450 340.774 L 1024.900 340.500 1023.500 337.500 C 1020.173 330.370 1016.000 320.915 1016.000 320.505 C 1016.000 320.094 1013.504 314.385 1009.002 304.500 C 1007.999 302.300 1005.769 297.125 1004.044 293.000 C 1002.320 288.875 1000.254 284.306 999.454 282.846 C 997.243 278.809 997.672 277.249 1001.496 275.435 C 1007.110 272.771 1015.161 263.225 1017.955 255.919 C 1020.163 250.143 1020.405 248.046 1020.366 235.000 C 1020.326 221.719 1020.097 219.918 1017.642 213.579 C 1013.027 201.666 1004.779 193.907 992.000 189.461 C 987.113 187.760 982.906 187.510 954.250 187.222 L 922.000 186.897 922.000 263.949 M 977.614 210.576 C 987.017 213.310 990.960 220.589 990.985 235.261 C 991.018 254.301 983.070 260.601 960.000 259.821 L 950.500 259.500 950.231 235.520 C 950.084 222.331 950.182 210.968 950.450 210.270 C 951.183 208.359 970.748 208.580 977.614 210.576 "/></g>
<g fill="#F6F5F5FE" stroke="#F6F5F5FE">
<path d="M 669.583 188.250 C 669.388 188.938 668.677 191.975 668.003 195.000 C 664.213 211.997 659.352 232.576 657.962 237.500 C 657.341 239.700 656.458 243.525 656.000 246.000 C 655.542 248.475 654.649 252.300 654.016 254.500 C 652.828 258.630 650.276 269.289 647.551 281.500 C 645.352 291.358 640.996 309.486 639.262 316.000 C 638.456 319.025 637.405 323.525 636.925 326.000 C 635.845 331.574 634.460 336.945 633.508 339.250 C 632.839 340.871 633.891 341.000 647.776 341.000 L 662.766 341.000 664.434 333.250 C 665.352 328.988 666.791 322.575 667.632 319.000 C 668.473 315.425 669.417 311.375 669.729 310.000 C 670.042 308.625 670.793 307.169 671.399 306.765 C 672.005 306.361 680.882 306.024 691.128 306.015 C 704.837 306.004 710.023 306.330 710.770 307.250 C 711.815 308.538 713.817 316.967 716.708 332.250 L 718.363 341.000 733.788 341.000 C 748.094 341.000 749.160 340.873 748.475 339.250 C 748.068 338.288 746.915 333.900 745.913 329.500 C 744.911 325.100 743.614 319.700 743.031 317.500 C 742.448 315.300 741.567 311.700 741.073 309.500 C 740.579 307.300 739.481 302.800 738.634 299.500 C 737.787 296.200 734.594 283.150 731.540 270.500 C 728.486 257.850 725.523 245.925 724.956 244.000 C 724.389 242.075 723.287 237.575 722.508 234.000 C 721.729 230.425 720.587 225.700 719.970 223.500 C 719.354 221.300 718.458 217.700 717.979 215.500 C 717.501 213.300 716.649 209.700 716.086 207.500 C 715.523 205.300 714.287 199.788 713.340 195.250 L 711.618 187.000 690.778 187.000 C 674.961 187.000 669.852 187.301 669.583 188.250 M 692.842 221.750 C 693.905 226.087 696.481 238.971 698.589 250.500 C 699.394 254.900 700.458 259.850 700.954 261.500 C 702.595 266.965 704.296 278.785 703.675 280.405 C 703.160 281.746 701.109 281.998 690.781 281.985 C 684.027 281.976 677.854 281.561 677.065 281.061 C 675.873 280.307 675.833 279.503 676.830 276.326 C 678.033 272.495 682.406 251.499 686.010 232.251 C 688.725 217.747 691.003 214.247 692.842 221.750 "/></g>
<g fill="#F6F5F5FE" stroke="#F6F5F5FE">
<path d="M 675.932 12.946 C 660.805 15.716 651.635 26.394 648.448 44.950 C 646.241 57.799 646.831 119.536 649.238 127.650 C 652.714 139.366 658.057 146.118 667.782 151.089 C 671.996 153.242 673.783 153.499 684.500 153.495 C 694.936 153.490 697.036 153.203 700.616 151.292 C 706.067 148.384 711.000 144.164 711.000 142.411 C 711.000 141.635 711.651 141.000 712.448 141.000 C 713.489 141.000 713.980 142.473 714.198 146.250 L 714.500 151.500 722.762 151.791 L 731.025 152.081 730.762 115.291 L 730.500 78.500 711.000 78.720 L 691.500 78.940 691.215 89.564 L 690.930 100.188 696.715 99.975 C 708.266 99.548 707.281 98.548 706.847 110.257 C 706.431 121.513 704.948 125.469 699.673 129.395 C 697.499 131.014 695.405 131.496 690.604 131.484 C 682.844 131.463 679.596 129.526 676.656 123.166 C 674.610 118.739 674.483 116.809 674.167 85.500 C 673.754 44.509 674.528 39.697 682.304 34.956 C 686.350 32.489 691.049 32.471 695.790 34.905 C 700.610 37.379 702.863 41.396 703.649 48.915 L 704.285 55.000 717.142 55.000 L 730.000 55.000 730.000 51.062 C 730.000 45.744 727.328 34.563 724.937 29.876 C 721.779 23.686 717.080 19.070 710.587 15.779 C 704.943 12.918 703.627 12.673 692.500 12.401 C 685.900 12.240 678.444 12.485 675.932 12.946 "/></g>
<g fill="#F6F5F5FE" stroke="#F6F5F5FE">
<path d="M 774.183 29.250 C 770.937 44.324 770.347 46.963 765.415 68.500 C 764.029 74.550 762.269 82.875 761.504 87.000 C 760.739 91.125 758.570 101.250 756.684 109.500 C 754.798 117.750 752.927 126.525 752.525 129.000 C 752.123 131.475 750.944 137.100 749.904 141.500 C 748.865 145.900 748.011 150.076 748.007 150.780 C 748.002 151.767 750.894 151.996 760.667 151.780 L 773.333 151.500 776.128 137.571 C 777.666 129.910 779.152 123.048 779.430 122.321 C 779.817 121.314 783.254 121.000 793.910 121.000 C 801.754 121.000 808.142 121.421 808.475 121.960 C 808.938 122.710 815.000 150.368 815.000 151.733 C 815.000 151.912 820.963 151.932 828.250 151.779 C 839.440 151.543 841.441 151.267 841.120 150.000 C 840.911 149.175 839.927 144.675 838.933 140.000 C 837.939 135.325 835.953 126.550 834.519 120.500 C 833.085 114.450 831.232 106.350 830.400 102.500 C 829.569 98.650 827.789 91.143 826.444 85.819 C 825.100 80.494 824.000 75.258 824.000 74.184 C 824.000 73.109 823.343 70.040 822.539 67.365 C 821.134 62.684 817.657 47.425 812.829 24.750 L 810.540 14.000 794.004 14.000 L 777.467 14.000 774.183 29.250 M 795.997 53.441 C 795.993 55.581 800.799 80.217 803.641 92.625 C 804.538 96.544 804.960 100.256 804.577 100.875 C 803.535 102.562 784.366 102.397 783.713 100.695 C 783.438 99.978 784.512 92.890 786.100 84.945 C 787.687 77.000 789.677 66.225 790.521 61.000 C 791.365 55.775 792.325 50.628 792.654 49.563 C 793.239 47.673 793.287 47.672 794.627 49.504 C 795.382 50.537 795.998 52.309 795.997 53.441 "/></g>
<g fill="#F6F5F5FE" stroke="#F6F5F5FE">
<path d="M 573.535 15.250 C 573.314 15.938 571.783 22.800 570.132 30.500 C 568.482 38.200 565.486 52.150 563.475 61.500 C 557.999 86.958 553.063 110.578 551.458 119.000 C 550.672 123.125 548.897 131.900 547.515 138.500 C 546.132 145.100 545.000 150.838 545.000 151.250 C 545.000 151.663 550.529 152.000 557.287 152.000 L 569.575 152.000 571.960 139.250 C 575.561 120.001 573.360 122.000 590.956 122.000 L 605.962 122.000 606.503 124.750 C 606.800 126.263 607.694 130.425 608.488 134.000 C 609.283 137.575 610.430 143.088 611.037 146.250 L 612.142 152.000 624.571 152.000 C 631.407 152.000 636.996 151.663 636.991 151.250 C 636.974 149.939 633.078 130.822 631.030 122.000 C 629.944 117.325 627.670 107.200 625.977 99.500 C 624.283 91.800 622.266 82.800 621.495 79.500 C 620.723 76.200 618.770 67.425 617.153 60.000 C 611.756 35.218 608.479 20.366 607.498 16.250 C 606.969 14.029 606.748 14.000 590.450 14.000 C 578.121 14.000 573.835 14.317 573.535 15.250 M 591.774 52.078 C 591.925 53.410 592.715 57.425 593.530 61.000 C 597.317 77.611 601.000 96.370 601.000 99.047 L 601.000 102.000 590.559 102.000 C 584.816 102.000 579.920 101.663 579.679 101.250 C 579.284 100.576 583.212 79.145 587.745 57.242 C 589.387 49.310 591.198 46.988 591.774 52.078 "/></g>
<g fill="#F6F5F5FE" stroke="#F6F5F5FE">
<path d="M 485.920 12.942 C 475.865 14.794 467.042 21.493 462.536 30.694 C 457.228 41.536 457.954 58.748 464.183 69.731 C 467.352 75.319 477.644 85.081 486.075 90.496 C 501.074 100.129 504.185 102.401 506.922 105.722 C 516.523 117.370 511.388 133.416 498.076 133.368 C 488.771 133.335 484.004 128.091 482.424 116.153 C 481.724 110.862 481.686 110.813 478.733 111.403 C 477.093 111.731 471.693 112.000 466.734 112.000 L 457.718 112.000 458.242 120.406 C 459.687 143.564 474.320 155.083 500.656 153.795 C 508.534 153.410 511.599 152.792 516.002 150.701 C 523.606 147.091 529.667 140.936 533.335 133.097 C 536.136 127.112 536.417 125.597 536.417 116.461 C 536.417 106.997 536.208 105.974 532.849 98.955 C 528.203 89.247 523.522 84.720 506.500 73.473 C 492.925 64.503 487.444 59.849 485.120 55.316 C 483.501 52.158 483.745 43.394 485.549 39.906 C 488.974 33.282 497.843 31.074 504.102 35.287 C 508.091 37.973 509.938 41.404 510.856 47.834 L 511.522 52.500 523.761 52.781 L 536.000 53.062 536.000 49.345 C 536.000 44.831 533.308 33.614 531.236 29.500 C 528.124 23.317 523.806 19.030 517.630 15.989 C 512.130 13.282 510.110 12.860 500.936 12.503 C 495.196 12.280 488.439 12.478 485.920 12.942 "/></g>
<g fill="#F6F5F5FE" stroke="#F6F5F5FE">
<path d="M 1090.751 12.892 C 1084.784 14.154 1078.112 18.066 1074.044 22.688 C 1066.449 31.316 1063.134 47.068 1066.486 58.599 C 1070.413 72.107 1076.823 79.526 1095.000 91.598 C 1114.228 104.369 1117.433 108.170 1117.361 118.120 C 1117.296 127.181 1111.758 133.000 1103.198 133.000 C 1095.442 133.000 1089.530 126.273 1088.323 116.075 L 1087.709 110.897 1075.605 111.580 C 1068.947 111.956 1063.340 112.402 1063.144 112.571 C 1062.948 112.741 1063.288 116.597 1063.900 121.141 C 1065.906 136.049 1072.517 145.668 1084.580 151.231 C 1088.903 153.225 1091.077 153.498 1102.500 153.483 C 1114.669 153.468 1115.898 153.284 1121.734 150.604 C 1128.940 147.295 1135.417 140.896 1139.046 133.500 C 1141.237 129.036 1141.500 127.214 1141.500 116.500 C 1141.500 105.152 1141.337 104.177 1138.500 98.564 C 1134.051 89.761 1127.303 83.050 1114.216 74.412 C 1092.684 60.202 1089.392 56.347 1090.223 46.321 C 1090.754 39.921 1093.122 36.249 1098.412 33.621 C 1105.274 30.213 1112.347 34.063 1115.466 42.904 C 1116.310 45.295 1117.000 48.320 1117.000 49.626 C 1117.000 51.994 1117.030 52.000 1129.115 52.000 L 1141.230 52.000 1140.571 46.250 C 1139.474 36.679 1136.128 28.543 1130.859 22.631 C 1124.103 15.051 1118.472 12.826 1105.009 12.418 C 1099.229 12.242 1092.813 12.456 1090.751 12.892 "/></g>
<g fill="#F6F5F5FE" stroke="#F6F5F5FE">
<path d="M 991.000 83.014 L 991.000 152.029 1021.750 151.764 L 1052.500 151.500 1052.673 146.500 C 1052.768 143.750 1052.613 138.923 1052.327 135.773 L 1051.809 130.046 1034.655 129.773 L 1017.500 129.500 1017.227 111.775 L 1016.954 94.050 1033.227 93.775 L 1049.500 93.500 1049.500 82.500 L 1049.500 71.500 1033.227 71.225 L 1016.954 70.950 1017.227 53.225 L 1017.500 35.500 1027.500 35.298 C 1033.000 35.188 1040.763 35.075 1044.750 35.048 L 1052.000 35.000 1052.000 24.500 L 1052.000 14.000 1021.500 14.000 L 991.000 14.000 991.000 83.014 "/></g>
<g fill="#F6F5F5FE" stroke="#F6F5F5FE">
<path d="M 914.000 83.000 L 914.000 152.000 927.500 152.000 L 941.000 152.000 941.000 123.500 L 941.000 95.000 956.500 95.000 L 972.000 95.000 972.000 83.750 L 972.001 72.500 956.750 72.500 L 941.500 72.500 941.227 54.250 L 940.955 36.000 950.727 35.770 C 956.102 35.644 963.763 35.674 967.750 35.837 L 975.000 36.134 975.000 25.067 L 975.000 14.000 944.500 14.000 L 914.000 14.000 914.000 83.000 "/></g>
<g fill="#F6F5F5FE" stroke="#F6F5F5FE">
<path d="M 1150.000 25.064 L 1150.000 36.127 1157.750 35.993 C 1162.013 35.919 1167.409 35.891 1169.742 35.929 L 1173.984 36.000 1174.242 93.750 L 1174.500 151.500 1187.250 151.780 L 1200.000 152.060 1200.000 94.060 L 1200.000 36.060 1212.750 35.780 L 1225.500 35.500 1225.784 24.750 L 1226.068 14.000 1188.034 14.000 L 1150.000 14.000 1150.000 25.064 "/></g>
<g fill="#F6F5F5FE" stroke="#F6F5F5FE">
<path d="M 1057.917 187.416 C 1057.688 187.645 1057.618 222.295 1057.762 264.416 L 1058.025 341.000 1072.012 341.000 L 1086.000 341.000 1086.000 264.000 L 1086.000 187.000 1072.167 187.000 C 1064.558 187.000 1058.146 187.187 1057.917 187.416 "/></g>
<g fill="#F6F5F5FE" stroke="#F6F5F5FE">
<path d="M 217.373 46.253 C 213.683 50.944 204.624 69.578 205.246 71.198 C 205.935 72.994 255.664 93.000 259.439 93.000 C 265.599 93.000 263.458 75.109 256.139 65.426 C 251.867 59.773 243.576 53.671 233.130 48.490 C 223.152 43.542 219.872 43.076 217.373 46.253 M 233.903 54.267 C 244.065 58.705 244.298 59.324 238.740 67.105 C 236.228 70.622 233.085 74.519 231.756 75.765 L 229.339 78.030 223.042 74.782 C 215.452 70.868 214.497 69.162 215.842 61.921 C 217.633 52.276 218.441 50.998 222.725 51.017 C 224.801 51.026 229.831 52.489 233.903 54.267 M 252.133 63.890 C 259.330 69.551 263.357 90.002 257.275 89.999 C 255.212 89.998 243.505 84.625 242.689 83.305 C 242.385 82.814 243.033 80.406 244.129 77.956 L 246.122 73.500 244.100 75.667 C 242.132 77.775 238.672 77.896 237.438 75.900 C 236.185 73.872 245.193 62.000 247.986 62.000 C 248.945 62.000 250.811 62.850 252.133 63.890 M 240.500 80.014 C 240.500 82.157 237.594 81.848 237.173 79.659 C 236.916 78.323 237.323 77.916 238.659 78.173 C 239.672 78.368 240.500 79.196 240.500 80.014 "/></g>
<g fill="#F6F5F5FE" stroke="#F6F5F5FE">
<path d="M 165.785 30.669 C 161.713 34.970 154.135 48.800 154.689 50.920 C 155.248 53.056 155.966 53.412 174.500 60.732 C 193.541 68.252 196.765 69.196 199.112 67.940 C 201.592 66.613 212.208 45.467 211.807 42.653 C 211.211 38.474 187.377 29.021 175.500 28.254 C 168.824 27.822 168.374 27.934 165.785 30.669 M 199.885 48.069 C 207.352 49.670 207.696 50.666 203.446 58.398 C 200.094 64.495 199.560 65.000 196.472 65.000 C 192.323 65.000 177.000 59.112 177.000 57.518 C 177.000 55.329 184.910 49.472 189.914 47.956 C 193.541 46.856 194.270 46.865 199.885 48.069 "/></g>
<g fill="#F6F5F5FE" stroke="#F6F5F5FE">
<path d="M 850.000 89.250 L 850.000 100.000 872.534 100.000 L 895.068 100.000 894.784 89.417 L 894.500 78.833 872.250 78.667 L 850.000 78.500 850.000 89.250 "/></g>
<g fill="#F6F5F5FE" stroke="#F6F5F5FE">
<path d="M 136.387 25.944 C 128.762 27.143 121.310 29.868 117.969 32.680 C 114.424 35.662 114.191 37.705 117.250 38.983 C 123.802 41.722 141.987 48.190 145.177 48.917 L 148.854 49.755 155.427 39.504 C 159.042 33.867 162.000 28.795 162.000 28.234 C 162.000 27.673 161.389 26.980 160.643 26.693 C 157.970 25.667 141.402 25.156 136.387 25.944 M 151.000 30.346 C 157.615 31.734 157.739 32.542 152.533 40.384 C 147.945 47.296 146.846 47.410 133.273 42.373 C 122.093 38.225 119.401 36.427 121.171 34.294 C 124.993 29.689 139.016 27.833 151.000 30.346 "/></g>
<g fill="#F6F5F5FE" stroke="#F6F5F5FE">
<path d="M 200.465 181.952 C 197.397 183.195 195.992 185.350 194.436 191.194 C 193.659 194.112 193.018 196.828 193.012 197.229 C 192.995 198.290 198.358 195.768 199.300 194.271 C 199.740 193.572 200.752 193.000 201.550 193.000 C 202.347 193.000 203.010 192.438 203.022 191.750 C 203.034 191.063 203.910 191.625 204.968 193.000 C 207.038 195.690 207.847 195.323 209.750 190.834 C 210.673 188.659 210.604 188.062 209.377 187.591 C 208.550 187.274 208.122 186.612 208.425 186.121 C 209.480 184.414 216.447 187.666 217.065 190.154 L 217.647 192.500 218.379 190.288 C 219.979 185.452 214.331 180.952 206.800 181.063 C 204.435 181.098 201.584 181.498 200.465 181.952 "/></g>
<g fill="#F6F5F5FE" stroke="#F6F5F5FE">
<path d="M 306.048 87.290 C 306.022 87.724 306.917 89.877 308.038 92.074 C 309.159 94.271 309.807 96.503 309.479 97.034 C 309.151 97.565 309.591 98.000 310.457 98.000 C 311.729 98.000 311.461 96.893 309.064 92.250 C 307.432 89.088 306.075 86.855 306.048 87.290 "/></g>
</svg>
